<svg xmlns="http://www.w3.org/2000/svg" viewBox="0 0 96 96" role="img" aria-label="TikTok logo"><path d="M55 14h13c1 13 8 21 20 24v13c-8 0-15-3-20-7v23c0 15-12 25-28 25-14 0-25-9-25-22 0-15 13-24 29-22v13c-8-2-15 2-15 9 0 6 5 10 12 10 8 0 14-5 14-14V14Z" fill="#FFFFFF"/><path d="M51 18h7c1 9 8 18 19 22v6c-10-2-18-8-24-18v38c0 13-10 21-24 21-7 0-13-2-18-7 4 8 13 12 24 12 15 0 27-10 27-24V43c5 4 12 7 20 8v-8c-15-3-24-13-26-25h-5Z" fill="#25F4EE" opacity=".9"/><path d="M48 15h7c1 11 8 20 19 24v8c-12-3-20-10-26-21v40c0 10-8 17-20 17-7 0-12-3-15-7 4 9 12 14 24 14 15 0 27-10 27-24V42c5 4 12 7 20 8v-8C70 39 61 29 59 15H48Z" fill="#FE2C55" opacity=".85"/></svg>